<svg width="1019" height="288" viewBox="0 0 1019 288" fill="none" xmlns="http://www.w3.org/2000/svg">
<g clip-path="url(#clip0_74_35)">
<path fill-rule="evenodd" clip-rule="evenodd" d="M805.361 19.5766C805.361 11.2213 798.218 3.79199 789.278 3.79199H766.931C757.992 3.79199 750.842 11.2213 750.842 19.5766L751.74 268.497C751.74 276.853 757.992 284.282 766.931 284.282H789.278C798.218 284.282 805.361 276.853 805.361 268.497V19.5766V19.5766Z" fill="#005695"/>
<path fill-rule="evenodd" clip-rule="evenodd" d="M833.974 27.0057V38.1532C833.974 43.7162 837.552 47.4344 842.913 47.4344H1000.22C1007.38 47.4344 1013.63 40.9455 1013.63 33.5162V13.999C1013.63 6.56972 1007.38 -0.859529 1000.22 0.0807821C1000.22 0.0807821 848.266 15.8653 842.913 16.7913C837.545 16.7913 833.974 21.4283 833.974 27.0057V27.0057Z" fill="#005695"/>
<path fill-rule="evenodd" clip-rule="evenodd" d="M706.146 284.282C666.818 284.282 642.681 253.631 642.681 219.27V119.883H631.054C625.694 119.883 620.326 114.305 620.326 108.735V92.0101C620.326 85.5212 625.687 80.8627 631.054 80.8627H642.681V19.5691C642.681 11.2139 648.933 3.78467 657.872 3.78467H680.219C688.26 3.78467 694.519 11.2139 694.519 19.5691V80.8627H729.377C735.636 80.8627 740.106 85.514 740.106 92.0101V108.735C740.106 114.298 735.643 119.883 729.377 119.883H694.519V211.841C694.519 229.477 705.247 242.491 724.017 242.491H727.595C733.854 242.491 739.222 247.128 739.222 254.565V272.215C739.222 278.719 733.861 284.289 727.595 284.289H706.146V284.282V284.282Z" fill="#005695"/>
<path fill-rule="evenodd" clip-rule="evenodd" d="M437.987 179.332C437.987 126.393 407.599 73.4551 338.766 73.4551C275.302 73.4551 240.443 125.453 240.443 179.332C240.443 236.907 277.982 288 339.658 288C381.673 288 422.79 265.712 430.831 227.633C431.722 222.996 428.15 215.559 421.892 215.559H391.503C386.142 215.559 381.673 218.337 378.985 222.989C370.046 235.988 357.536 242.491 339.658 242.491C312.84 242.491 294.962 221.122 293.173 196.982H420.993C432.627 196.982 437.987 190.479 437.987 179.332V179.332ZM294.071 157.044C295.86 133.83 315.521 116.179 338.766 116.179C362.903 116.179 382.564 133.83 385.251 157.044H294.071V157.044Z" fill="#005695"/>
<path fill-rule="evenodd" clip-rule="evenodd" d="M1019 179.332C1019 126.393 988.611 73.4551 919.779 73.4551C856.314 73.4551 821.463 125.453 821.463 179.332C821.463 236.907 859.008 288 920.677 288C962.692 288 1003.8 265.712 1011.85 227.633C1012.75 222.996 1009.16 215.559 1002.91 215.559H972.522C967.162 215.559 962.692 218.337 960.005 222.989C951.066 235.988 938.555 242.491 919.779 242.491C893.86 242.491 875.982 221.122 874.192 196.982H1002.02C1013.64 196.982 1019 190.479 1019 179.332V179.332ZM875.091 157.044C876.873 133.83 896.533 116.179 919.779 116.179C943.916 116.179 963.583 133.83 965.373 157.044H875.091Z" fill="#005695"/>
<path fill-rule="evenodd" clip-rule="evenodd" d="M599.775 6.56961H186.809C176.979 6.56961 169.829 14.9392 169.829 24.2204L170.72 193.271C170.72 193.271 82.2271 26.0867 77.7576 17.7171C73.2949 9.36185 63.4578 1.93262 50.9473 1.93262H16.9801C7.1499 1.93262 0 10.3022 0 19.5835V266.638C0 276.86 7.1499 284.289 16.9801 284.289H38.4298C48.26 284.289 55.4168 276.86 55.4168 266.638L54.5256 93.8907C54.5256 93.8907 143.91 262.001 148.379 268.504C152.849 277.785 161.788 284.289 174.298 284.289H205.585C215.415 284.289 222.565 276.86 222.565 266.638V48.3819H599.775C606.027 48.3819 611.395 42.8045 611.395 36.3083V18.6575C611.395 12.147 606.034 6.56961 599.775 6.56961V6.56961Z" fill="#005695"/>
<path fill-rule="evenodd" clip-rule="evenodd" d="M532.732 114.306C550.611 114.306 564.019 120.809 569.387 132.883C571.176 138.46 575.639 139.386 581.904 139.386H606.932C610.511 139.386 615.871 135.668 615.871 130.105C615.871 100.38 581.006 73.4482 532.739 73.4482C482.683 73.4482 449.614 98.514 449.614 137.534C449.614 168.184 472.853 185.835 500.561 194.19C513.97 196.983 536.318 202.546 547.039 206.264C557.767 209.056 568.489 212.767 568.489 222.989C568.489 239.699 552.4 244.344 533.63 244.344C516.643 244.344 499.663 236.914 495.194 223.915C492.513 216.485 487.146 215.559 479.996 215.559H454.968C450.498 215.559 445.138 220.197 445.138 225.767V229.485C445.138 258.283 482.683 288.001 534.522 288.001C570.278 288.001 621.232 272.216 621.232 222.048C621.232 192.324 602.456 171.903 571.176 163.547C559.55 160.755 530.95 152.4 524.691 151.459C513.065 147.741 502.344 144.03 502.344 134.749C502.344 118.964 515.752 114.306 532.732 114.306V114.306Z" fill="#005695"/>
</g>
<defs>
<clipPath id="clip0_74_35">
<rect width="1019" height="288" fill="white"/>
</clipPath>
</defs>
</svg>
