<svg width="1521" height="257" viewBox="0 0 1521 257" fill="none" xmlns="http://www.w3.org/2000/svg">
<path d="M128.5 0L157.35 88.7913L250.711 88.7913L175.18 143.667L204.03 232.459L128.5 177.583L52.9696 232.459L81.8196 143.667L6.28924 88.7913L99.6499 88.7913L128.5 0Z" fill="#2F2F31"/>
<path d="M439.044 0L467.894 88.7913L561.255 88.7913L485.724 143.667L514.574 232.459L439.044 177.583L363.514 232.459L392.364 143.667L316.833 88.7913L410.194 88.7913L439.044 0Z" fill="#2F2F31"/>
<path d="M760.294 0L789.144 88.7913L882.505 88.7913L806.974 143.667L835.824 232.459L760.294 177.583L684.764 232.459L713.614 143.667L638.083 88.7913L731.444 88.7913L760.294 0Z" fill="#2F2F31"/>
<path d="M1081.54 0L1110.39 88.7913L1203.75 88.7913L1128.22 143.667L1157.07 232.459L1081.54 177.583L1006.01 232.459L1034.86 143.667L959.333 88.7913L1052.69 88.7913L1081.54 0Z" fill="#2F2F31"/>
<path d="M1392.08 0L1420.93 88.7913L1514.29 88.7913L1438.76 143.667L1467.61 232.459L1392.08 177.583L1316.55 232.459L1345.4 143.667L1269.87 88.7913L1363.23 88.7913L1392.08 0Z" fill="#2F2F31"/>
</svg>
