<svg width="338" height="57" viewBox="0 0 338 57" fill="none" xmlns="http://www.w3.org/2000/svg">
<path d="M28.5 0L34.8986 19.693H55.6051L38.8532 31.864L45.2519 51.557L28.5 39.386L11.7481 51.557L18.1468 31.864L1.39489 19.693H22.1014L28.5 0Z" fill="#FF9F0E"/>
<path d="M97.3755 0L103.774 19.693H124.481L107.729 31.864L114.127 51.557L97.3755 39.386L80.6236 51.557L87.0223 31.864L70.2704 19.693H90.9768L97.3755 0Z" fill="#FF9F0E"/>
<path d="M168.625 0L175.024 19.693H195.731L178.979 31.864L185.377 51.557L168.625 39.386L151.874 51.557L158.272 31.864L141.52 19.693H162.227L168.625 0Z" fill="#FF9F0E"/>
<path d="M239.875 0L246.274 19.693H266.981L250.229 31.864L256.627 51.557L239.875 39.386L223.124 51.557L229.522 31.864L212.77 19.693H233.477L239.875 0Z" fill="#FF9F0E"/>
<path d="M308.75 1.61804L314.673 19.8475L314.785 20.193H315.148H334.316L318.809 31.4595L318.515 31.673L318.627 32.0185L324.55 50.248L309.043 38.9815L308.75 38.768L308.456 38.9815L292.949 50.248L298.872 32.0185L298.984 31.673L298.69 31.4595L283.183 20.193H302.351H302.714L302.826 19.8475L308.75 1.61804Z" fill="#FF9F0E" stroke="#FF9F0E"/>
</svg>
